<?xml version="1.0" encoding="utf-8"?>
<!-- Generator: Adobe Illustrator 18.0.0, SVG Export Plug-In . SVG Version: 6.00 Build 0)  -->
<!DOCTYPE svg PUBLIC "-//W3C//DTD SVG 1.1//EN" "http://www.w3.org/Graphics/SVG/1.1/DTD/svg11.dtd">
<svg version="1.1" id="Ebene_1" xmlns="http://www.w3.org/2000/svg" xmlns:xlink="http://www.w3.org/1999/xlink" x="0px" y="0px"
	 viewBox="0 0 141.7 141.7" enable-background="new 0 0 141.7 141.7" xml:space="preserve">
<path fill="#474A56" d="M132.9,12.7H9c-2.6,0-4.6,2.1-4.6,4.6v107.1c0,2.6,2.1,4.6,4.6,4.6h123.9c2.6,0,4.6-2.1,4.6-4.6V17.3
	C137.5,14.7,135.5,12.7,132.9,12.7z M13.6,119.8V29.9h114.7v89.9H13.6z"/>
<path fill="#474A56" d="M35,82.6l10.4-1.1v-6.2l-3.1-2.5l-10.7-8.7c-0.5-0.3-0.7-0.9-0.7-1.4c0-0.6,0.3-1.1,0.7-1.4l13.8-11.2v-5.2
	c0-1.5-1.2-2.8-2.8-2.8H24.3c-1.5,0-2.8,1.2-2.8,2.8v60.7c0,1.5,1.2,2.8,2.8,2.8h18.4c1.5,0,2.8-1.2,2.8-2.8V92.1L35,91
	c-2.3,0-4.2-1.9-4.2-4.2C30.9,84.5,32.7,82.6,35,82.6z"/>
<g>
	<path fill="#474A56" d="M54,73.4l4.9,4v-9.9l-5.5,0.6v4.7v0.4C53.6,73.2,53.8,73.3,54,73.4z"/>
	<path fill="#474A56" d="M117.9,42.2H56.1c-1.5,0-2.8,1.2-2.8,2.8v12.4l5.5,0.6V47.7h56.2v55.1H58.9v-6.7L58,96.9l-4,3.3
		c0,0,0,0-0.1,0v0c-0.2,0.1-0.4,0.2-0.5,0.2v5.2c0,1.5,1.2,2.8,2.8,2.8h61.7c1.5,0,2.8-1.2,2.8-2.8V44.9
		C120.6,43.4,119.4,42.2,117.9,42.2z"/>
</g>
<path fill="#474A56" d="M43.2,71.4l3.4,2.8c0,0,0,0,0.1,0v0c0.3,0.2,0.6,0.3,0.9,0.2h0c0.1,0,0.2,0,0.3,0c0.1,0,0.2-0.1,0.3-0.1
	c0.5-0.3,0.8-0.8,0.8-1.4l0-5.2l13.7-1.4c2,0,3.5-1.6,3.5-3.5c0-2-1.6-3.5-3.5-3.5L49,57.9l0-2.9v-2.3c0-0.1,0-0.3-0.1-0.4
	c0,0,0-0.1,0-0.1c0-0.1-0.1-0.2-0.1-0.3c0,0,0-0.1,0-0.1c-0.1-0.1-0.1-0.2-0.2-0.3c0,0,0,0,0,0c-0.1-0.1-0.2-0.2-0.4-0.3
	c-0.5-0.3-1.1-0.2-1.6,0.1L34.1,61.6c-0.4,0.3-0.6,0.7-0.6,1.2c0,0.5,0.2,0.9,0.6,1.2L43.2,71.4L43.2,71.4z"/>
<path fill="#474A56" d="M56.5,95.5l-3.4,2.8c0,0,0,0-0.1,0v0c-0.3,0.2-0.6,0.3-0.9,0.2h0c-0.1,0-0.2,0-0.3,0c-0.1,0-0.2-0.1-0.3-0.1
	c-0.5-0.3-0.8-0.8-0.8-1.4l0-5.2L37,90.5c-2,0-3.5-1.6-3.5-3.5c0-2,1.6-3.5,3.5-3.5l13.7-1.4l0-2.9v-2.3c0-0.1,0-0.3,0.1-0.4
	c0,0,0-0.1,0-0.1c0-0.1,0.1-0.2,0.1-0.3c0,0,0-0.1,0-0.1c0.1-0.1,0.1-0.2,0.2-0.3c0,0,0,0,0,0c0.1-0.1,0.2-0.2,0.4-0.3
	c0.5-0.3,1.1-0.2,1.6,0.1l12.5,10.1c0.4,0.3,0.6,0.7,0.6,1.2c0,0.5-0.2,0.9-0.6,1.2L56.5,95.5L56.5,95.5z"/>
</svg>
